<svg width="34" height="34" viewBox="0 0 34 34" fill="none" xmlns="http://www.w3.org/2000/svg">
<path d="M1.0625 5.99375H17.2394C17.7269 8.21298 19.7088 9.87904 22.0723 9.87904C24.4358 9.87904 26.4177 8.21305 26.9052 5.99375H32.9375C33.5243 5.99375 34 5.51801 34 4.93125C34 4.34448 33.5243 3.86875 32.9375 3.86875H26.9047C26.4162 1.65065 24.4317 -0.0164795 22.0723 -0.0164795C19.7117 -0.0164795 17.7281 1.65038 17.2398 3.86875H1.0625C0.475734 3.86875 0 4.34448 0 4.93125C0 5.51801 0.475734 5.99375 1.0625 5.99375ZM19.2496 4.93404C19.2496 4.93025 19.2497 4.9264 19.2497 4.92262C19.2544 3.3709 20.5205 2.10859 22.0723 2.10859C23.6219 2.10859 24.8881 3.36918 24.8948 4.92016L24.895 4.93577C24.8926 6.49014 23.6273 7.75411 22.0723 7.75411C20.518 7.75411 19.2531 6.4914 19.2496 4.93796L19.2496 4.93404ZM32.9375 28.0061H26.9047C26.4161 25.7881 24.4317 24.1209 22.0723 24.1209C19.7117 24.1209 17.7281 25.7878 17.2398 28.0061H1.0625C0.475734 28.0061 0 28.4818 0 29.0686C0 29.6555 0.475734 30.1311 1.0625 30.1311H17.2394C17.7269 32.3504 19.7088 34.0164 22.0723 34.0164C24.4358 34.0164 26.4177 32.3504 26.9052 30.1311H32.9375C33.5243 30.1311 34 29.6555 34 29.0686C34 28.4818 33.5243 28.0061 32.9375 28.0061ZM22.0723 31.8914C20.518 31.8914 19.2531 30.6287 19.2496 29.0753L19.2496 29.0714C19.2496 29.0676 19.2497 29.0638 19.2497 29.06C19.2544 27.5083 20.5205 26.2459 22.0723 26.2459C23.6219 26.2459 24.8881 27.5065 24.8948 29.0574L24.895 29.073C24.8928 30.6276 23.6274 31.8914 22.0723 31.8914ZM32.9375 15.9375H16.7606C16.2731 13.7183 14.2912 12.0523 11.9277 12.0523C9.56416 12.0523 7.58233 13.7183 7.09478 15.9375H1.0625C0.475734 15.9375 0 16.4132 0 17C0 17.5868 0.475734 18.0625 1.0625 18.0625H7.09531C7.58386 20.2805 9.56834 21.9477 11.9277 21.9477C14.2883 21.9477 16.2719 20.2808 16.7602 18.0625H32.9375C33.5243 18.0625 34 17.5868 34 17C34 16.4132 33.5243 15.9375 32.9375 15.9375ZM14.7504 16.9972C14.7504 17.001 14.7503 17.0048 14.7503 17.0086C14.7456 18.5603 13.4795 19.8226 11.9277 19.8226C10.3781 19.8226 9.11187 18.5621 9.10516 17.0111L9.10496 16.9956C9.10729 15.441 10.3727 14.1773 11.9277 14.1773C13.482 14.1773 14.7469 15.4399 14.7504 16.9934L14.7504 16.9972Z" fill="black"/>
</svg>
